HIERARCHY
ROOT Hips
{
 OFFSET 0.000000 0.000000 0.000000
 CHANNELS 6 Xposition Yposition Zposition Yrotation Xrotation Zrotation
 JOINT Chest
 {
  OFFSET 0.000000 10.483295 0.018402
  CHANNELS 3 Yrotation Xrotation Zrotation
  JOINT Chest2
  {
   OFFSET 0.000000 12.196575 -0.033437
   CHANNELS 3 Yrotation Xrotation Zrotation
   JOINT Chest3
   {
    OFFSET 0.000000 11.021500 0.000000
    CHANNELS 3 Yrotation Xrotation Zrotation
    JOINT Chest4
    {
     OFFSET 0.000000 11.021400 0.000000
     CHANNELS 3 Yrotation Xrotation Zrotation
     JOINT Neck
     {
      OFFSET 0.000000 15.252000 0.000000
      CHANNELS 3 Yrotation Xrotation Zrotation
      JOINT Head
      {
       OFFSET 0.000000 10.245098 -0.079700
       CHANNELS 3 Yrotation Xrotation Zrotation
       End Site
       {
        OFFSET 0.000000 19.813991 -0.041600
       }
      }
     }
     JOINT RightCollar
     {
      OFFSET -3.058700 8.489100 0.000000
      CHANNELS 3 Yrotation Xrotation Zrotation
      JOINT RightShoulder
      {
       OFFSET -13.730400 0.000000 0.000000
       CHANNELS 3 Yrotation Xrotation Zrotation
       JOINT RightElbow
       {
        OFFSET -30.364119 -0.000000 0.000000
        CHANNELS 3 Yrotation Xrotation Zrotation
        JOINT RightWrist
        {
         OFFSET -24.952755 0.000000 0.004743
         CHANNELS 3 Yrotation Xrotation Zrotation
         End Site
         {
          OFFSET -18.738600 0.000000 0.000000
         }
        }
       }
      }
     }
     JOINT LeftCollar
     {
      OFFSET 3.058700 8.489100 0.000000
      CHANNELS 3 Yrotation Xrotation Zrotation
      JOINT LeftShoulder
      {
       OFFSET 13.730400 0.000000 0.000000
       CHANNELS 3 Yrotation Xrotation Zrotation
       JOINT LeftElbow
       {
        OFFSET 30.364119 -0.000000 0.000000
        CHANNELS 3 Yrotation Xrotation Zrotation
        JOINT LeftWrist
        {
         OFFSET 24.952755 -0.000000 0.004743
         CHANNELS 3 Yrotation Xrotation Zrotation
         End Site
         {
          OFFSET 18.738600 -0.000000 -0.000000
         }
        }
       }
      }
     }
    }
   }
  }
 }
 JOINT RightHip
 {
  OFFSET -8.366805 -0.090331 -0.009218
  CHANNELS 3 Yrotation Xrotation Zrotation
  JOINT RightKnee
  {
   OFFSET 0.000000 -46.515684 0.008890
   CHANNELS 3 Yrotation Xrotation Zrotation
   JOINT RightAnkle
   {
    OFFSET 0.000000 -42.864747 0.048728
    CHANNELS 3 Yrotation Xrotation Zrotation
    JOINT RightToe
    {
     OFFSET 0.000000 -10.045100 15.254100
     CHANNELS 3 Yrotation Xrotation Zrotation
     End Site
     {
      OFFSET 0.000000 -1.537700 6.138800
     }
    }
   }
  }
 }
 JOINT LeftHip
 {
  OFFSET 8.366805 -0.090331 -0.009218
  CHANNELS 3 Yrotation Xrotation Zrotation
  JOINT LeftKnee
  {
   OFFSET 0.000000 -46.515684 0.008890
   CHANNELS 3 Yrotation Xrotation Zrotation
   JOINT LeftAnkle
   {
    OFFSET 0.000000 -42.864747 0.048728
    CHANNELS 3 Yrotation Xrotation Zrotation
    JOINT LeftToe
    {
     OFFSET 0.000000 -10.045100 15.254100
     CHANNELS 3 Yrotation Xrotation Zrotation
     End Site
     {
      OFFSET 0.000000 -1.537700 6.138800
     }
    }
   }
  }
 }
}
MOTION
Frames: 5
Frame Time: 0.004167
231.609953 94.817601 -839.923408 161.554885 -11.499783 4.263223 7.591970 8.184117 -3.282640 3.705782 4.130741 -0.459269 3.705698 4.130827 -0.459317 2.781146 3.095381 -0.369483 1.208449 19.731001 -3.310639 3.229087 0.589560 -6.417238 -6.392000 -2.966985 3.354677 8.603711 2.511536 76.045716 31.957621 11.114203 9.634126 -12.177442 12.888452 -26.496698 -3.381432 -3.812418 -4.757300 0.633304 4.792063 -79.424916 -15.380813 3.719185 -2.594273 4.132199 20.868703 19.911732 -5.041895 15.743442 -7.317246 6.228383 44.623713 -14.622287 8.568979 2.778751 10.929052 1.408051 -50.928100 -3.202811 21.920504 -14.144944 -8.445426 0.607603 20.313032 6.247430 16.469179 3.656139 1.875725 1.394966 -1.321951 -0.778287
231.590223 94.841062 -840.489951 161.426797 -11.672522 4.061328 7.769615 8.311338 -2.978147 3.717773 4.153435 -0.470273 3.717635 4.153523 -0.470273 2.790238 3.112390 -0.377937 1.185688 19.736059 -3.370871 3.205961 0.601011 -6.519913 -6.293200 -3.011887 3.297390 8.623627 2.597921 76.302277 31.284107 11.205148 9.371689 -12.323212 12.928961 -26.456384 -3.466712 -3.864875 -4.780780 0.412285 4.680216 -79.454616 -15.351025 3.621505 -2.498921 4.195575 20.875415 19.818442 -4.829774 15.219651 -7.212667 5.722346 45.853096 -15.143038 8.931567 4.183065 10.771711 1.080519 -50.952117 -2.439229 21.965414 -13.884962 -8.265691 0.559119 20.746734 6.258663 16.794563 2.836685 2.282395 1.194495 -0.811602 -0.854931
231.567223 94.877910 -841.064806 161.325033 -11.882329 3.826837 7.918054 8.469540 -2.648525 3.728720 4.173485 -0.477829 3.728891 4.173563 -0.477774 2.798559 3.127329 -0.383772 1.166185 19.750079 -3.436500 3.189793 0.629449 -6.632723 -6.178004 -3.047933 3.247189 8.664262 2.680534 76.529576 30.622472 11.270721 9.123360 -12.471603 12.959033 -26.406381 -3.534859 -3.913668 -4.799775 0.185617 4.557723 -79.485137 -15.336667 3.540633 -2.413960 4.263856 20.890570 19.724952 -4.628038 14.739029 -7.068751 5.158498 47.013919 -15.713322 9.325384 5.633258 10.603687 0.737988 -50.438909 -1.655957 21.978781 -13.602181 -8.067722 0.631307 21.163483 6.341582 17.026360 2.040488 2.675649 0.958968 -0.366046 -0.948104
231.542695 94.926090 -841.643149 161.267078 -12.127503 3.535350 8.026219 8.653432 -2.272470 3.738057 4.190798 -0.481906 3.738053 4.190871 -0.481814 2.805631 3.140331 -0.386980 1.151123 19.773200 -3.505929 3.182297 0.675362 -6.753682 -6.047779 -3.071184 3.205773 8.727285 2.756600 76.718381 29.974410 11.308773 8.897530 -12.622675 12.981390 -26.342369 -3.590005 -3.957174 -4.816920 -0.022328 4.423738 -79.513394 -15.343805 3.491971 -2.342740 4.335366 20.911650 19.634749 -4.468479 14.298171 -6.855241 4.586589 48.100325 -16.313678 9.732621 7.162008 10.449064 0.420001 -49.411212 -0.906219 21.967341 -13.308047 -7.843966 0.759957 21.564511 6.497360 17.230172 1.293940 3.048238 0.693556 0.001914 -1.056726
231.491988 94.980882 -842.209048 161.290876 -12.292477 3.277567 8.048872 8.760325 -1.965492 3.745856 4.206042 -0.482904 3.745818 4.206209 -0.483004 2.811469 3.151727 -0.387856 1.140081 19.804227 -3.577255 3.182420 0.736510 -6.879037 -5.912550 -3.084389 3.171637 8.817840 2.825116 76.866761 29.339480 11.322343 8.701570 -12.771626 12.999270 -26.260549 -3.632188 -3.999551 -4.826879 -0.211230 4.285353 -79.542491 -15.376789 3.472398 -2.287730 4.409066 20.940021 19.552816 -4.408956 13.774962 -6.656343 4.143147 49.135995 -16.841786 9.967659 8.758191 10.276311 0.174451 -47.846617 -0.150072 21.968745 -13.067771 -7.731767 0.896403 21.942907 6.712521 17.338562 0.607030 3.335750 0.501726 0.297773 -1.115404
